# xmcd
# 
# Track frame offsets:
#     183
#     19225
#     38135
#     57578
#     73470
#     93808
#     114018
#     127695
#     147268
#     167185
#     186030
#     207895
# 
# Disc length: 2882
# 
# Revision: 10
# Processed by: cddbd v1.5.2PL0 Copyright (c) Steve Scherf et al.
# Submitted via: fre:ac v1.0.31
# 
DISCID=a40b400c
DTITLE=Maurane - Ami ou ennemi
DYEAR=1991
DGENRE=Chanson
TTITLE0=Du mal
TTITLE1=Tu es parti
TTITLE2=Mentir
TTITLE3=Décidément
TTITLE4=Les femmes en dessous (les hommes en pardessus)
TTITLE5=Qui es-tu Marie-Jeanne ?
TTITLE6=Ami ou ennemi
TTITLE7=Tant c'était bon
TTITLE8=Ta vie dévie
TTITLE9=Ça casse
TTITLE10=Sur un prélude de Bach
TTITLE11=J'ai toute la vie devant vous
EXTD=YEAR: 1991
EXTT0=
EXTT1=
EXTT2=
EXTT3=
EXTT4=
EXTT5=
EXTT6=
EXTT7=
EXTT8=
EXTT9=
EXTT10=
EXTT11=
PLAYORDER=
